<svg id="Layer_1" enable-background="new 0 0 512.062 512.062" height="512" viewBox="0 0 512.062 512.062" width="512" xmlns="http://www.w3.org/2000/svg"><g><path d="m496.031 64.018v336c0 17.65-14.35 32-32 32h-416c-17.65 0-32-14.35-32-32v-336c0-17.65 14.35-32 32-32h416c17.65 0 32 14.35 32 32z" fill="#e2e0e0"/><path d="m496.031 64.018v336c0 17.65-14.35 32-32 32h-48c17.65 0 32-14.35 32-32v-336c0-17.65-14.35-32-32-32h48c17.65 0 32 14.35 32 32z" fill="#cecccc"/><path d="m496.031 64.018v56c0 4.42-3.58 8-8 8h-464c-4.42 0-8-3.58-8-8v-56c0-17.65 14.35-32 32-32h416c17.65 0 32 14.35 32 32z" fill="#f79caf"/><path d="m496.031 64.018v56c0 4.42-3.58 8-8 8h-48c4.42 0 8-3.58 8-8v-56c0-17.65-14.35-32-32-32h48c17.65 0 32 14.35 32 32z" fill="#e3889b"/><path d="m136.031 24.018v40c0 13.23-10.77 24-24 24s-24-10.77-24-24v-40c0-13.23 10.77-24 24-24s24 10.77 24 24z" fill="#f3d4b7"/><path d="m136.031 24.018v40c0 18.576-20.252 29.96-36 20.77 7.17-4.15 12-11.91 12-20.77v-40c0-8.86-4.83-16.62-12-20.77 15.754-9.194 36 2.199 36 20.77z" fill="#e1c3a7"/><path d="m424.031 24.018v40c0 13.23-10.77 24-24 24s-24-10.77-24-24v-40c0-13.23 10.77-24 24-24s24 10.77 24 24z" fill="#f3d4b7"/><path d="m424.031 24.018v40c0 18.576-20.252 29.96-36 20.77 7.17-4.15 12-11.91 12-20.77v-40c0-8.86-4.83-16.62-12-20.77 15.754-9.194 36 2.199 36 20.77z" fill="#e1c3a7"/><g fill="#cecccc"><path d="m314.374 341.675c3.126 3.124 8.189 3.123 11.314 0l64-64c3.124-3.125 3.124-8.189 0-11.314-3.125-3.123-8.189-3.123-11.314 0l-64 64c-3.124 3.125-3.124 8.189 0 11.314z"/><path d="m282.374 309.675c3.126 3.124 8.189 3.123 11.314 0 25.175-25.176 25.175-66.139 0-91.314-3.125-3.123-8.189-3.123-11.314 0-3.124 3.125-3.124 8.189 0 11.314 18.938 18.937 18.938 49.749 0 68.686-3.124 3.125-3.124 8.189 0 11.314z"/><path d="m437.688 362.361c-25.176-25.174-66.139-25.174-91.314 0-3.124 3.125-3.124 8.189 0 11.314 3.125 3.123 8.189 3.123 11.314 0 18.936-18.938 49.75-18.938 68.686 0 3.126 3.124 8.189 3.123 11.314 0 3.124-3.125 3.124-8.189 0-11.314z"/><path d="m192.031 256.018h8v8c0 4.418 3.582 8 8 8s8-3.582 8-8v-8h8c4.418 0 8-3.582 8-8s-3.582-8-8-8h-8v-8c0-4.418-3.582-8-8-8s-8 3.582-8 8v8h-8c-4.418 0-8 3.582-8 8s3.582 8 8 8z"/><path d="m408.031 424.018v8h-16v-8c0-4.42 3.58-8 8-8s8 3.58 8 8z"/><circle cx="344.031" cy="248.018" r="8"/><circle cx="424.031" cy="288.018" r="8"/><circle cx="392.031" cy="392.018" r="8"/><circle cx="264.031" cy="272.018" r="8"/><path d="m361.081 432.018h-200.59c26.915-77.804 25.111-72.588 45.81-132.36.551-6.726 4.725-11.245 9.9-12.75 12.579-3.718 32.114 8.443 42.86 15.87 43.432 29.823 110.512 101.875 102.02 129.24z"/></g><path d="m322.651 439.578c-221.784 76.768-208.506 72.44-210.62 72.44-5.523 0-9.346-5.441-7.56-10.62 61.117-176.561 2.987-8.642 72-208 1.44-4.17 6-6.39 10.18-4.94 4.245 1.491 138.212 135.485 140.94 140.94 1.44 4.177-.765 8.73-4.94 10.18z" fill="#f79caf"/><path d="m322.651 439.578c-221.78 76.77-208.51 72.44-210.62 72.44-5.52 0-9.35-5.44-7.56-10.62 1.45-4.19 2.84-8.19 4.15-12.01 23.65-8.15 75.5-26.17 190.03-65.81 4.17-1.45 6.38-6 4.94-10.18-2.15-4.3-85.66-88.29-123.15-124.53 1.86-.94 4.08-1.15 6.21-.41 4.25 1.49 138.21 135.48 140.94 140.94 1.44 4.18-.77 8.73-4.94 10.18z" fill="#e3889b"/><path d="m228.931 472.018c-36.61 12.67-61.59 21.34-78.69 27.28-.21.08-.42.15-.62.21-38.35 13.2-35.974 12.51-37.59 12.51-5.52 0-9.35-5.44-7.56-10.62.424-1.271 9.599-27.731 10.17-29.38z" fill="#f3d4b7"/><path d="m328.031 432.018h-199.54c12.817-37.049 10.178-29.422 13.84-40h149.68c2.205 2.238 34.237 34.685 35.55 37.31.303.9.47 1.665.47 2.69z" fill="#f3d4b7"/><path d="m288.031 344.018c-7.065 0-10.711-8.602-5.657-13.657l64-64c3.125-3.123 8.189-3.123 11.314 0 3.124 3.125 3.124 8.189 0 11.314l-64 64c-1.562 1.562-3.609 2.343-5.657 2.343z" fill="#e4d5c1"/><path d="m256.031 312.018c-7.065 0-10.711-8.602-5.657-13.657 18.938-18.937 18.938-49.749 0-68.686-3.124-3.125-3.124-8.189 0-11.314 3.125-3.123 8.189-3.123 11.314 0 25.175 25.176 25.175 66.139 0 91.314-1.562 1.562-3.609 2.343-5.657 2.343z" fill="#e4d5c1"/><path d="m400.031 376.018c-2.048 0-4.095-.781-5.657-2.343-18.936-18.938-49.75-18.938-68.686 0-3.125 3.123-8.189 3.123-11.314 0-3.124-3.125-3.124-8.189 0-11.314 25.176-25.174 66.139-25.174 91.314 0 5.056 5.056 1.406 13.657-5.657 13.657z" fill="#e4d5c1"/><path d="m192.031 240.018h-8v-8c0-4.418-3.582-8-8-8s-8 3.582-8 8v8h-8c-4.418 0-8 3.582-8 8s3.582 8 8 8h8v8c0 4.418 3.582 8 8 8s8-3.582 8-8v-8h8c4.418 0 8-3.582 8-8s-3.582-8-8-8z" fill="#f8e9d2"/><path d="m384.031 432.018h-8v-8c0-4.418-3.582-8-8-8s-8 3.582-8 8v8h-8c-4.418 0-8 3.582-8 8s3.582 8 8 8h8v8c0 4.418 3.582 8 8 8s8-3.582 8-8v-8h8c4.418 0 8-3.582 8-8s-3.582-8-8-8z" fill="#f8e9d2"/><circle cx="312.031" cy="248.018" fill="#f3d4b7" r="8"/><circle cx="392.031" cy="288.018" fill="#f3d4b7" r="8"/><circle cx="360.031" cy="392.018" fill="#f3d4b7" r="8"/><circle cx="232.031" cy="272.018" fill="#f3d4b7" r="8"/><path d="m317.481 441.368c-.243.08-44.82 15.515-44.92 15.55-.067.068-1.437.44-2.62.44-2.72 0-3.98-.89-10.44-5.31-34.974-23.829-76.859-66.003-99.56-101.64-1.31-2.06-1.61-4.61-.81-6.92l15.47-44.7c3.456-8.673 15.616-6.134 15.56 2.68-.07 8.8 15.87 37.24 51.53 72.89 25.01 25.02 46.47 40.33 60.09 47.22.19 0 7.914 4.31 12.74 4.31 9.056 0 11.204 12.362 2.96 15.48z" fill="#f8e9d2"/><path d="m314.521 425.888c-4.385 0-12.841-4.31-12.74-4.31-46.688-23.618-111.781-99.795-111.62-120.11.019-2.907-1.537-5.5-3.83-6.88-4.258-2.635-10.037-.694-11.73 4.2-10.58 30.56-7.38 20.2-7.44 25.81-.15 18.949 51.729 80.563 96.57 111.07-6.26 2.16-12.29 4.24-18.1 6.26 4.7 3.65 9.35 7.04 13.87 10.12 6.46 4.42 7.72 5.31 10.44 5.31 1.714 0 .627.29 22.59-7.36 10.882-3.668 24.905-8.615 24.95-8.63 8.18-3.06 6.15-15.48-2.96-15.48z" fill="#e4d5c1"/><path d="m325.691 437.678c-19.093 19.091-76.26-32.97-95.32-52-7.54-7.54-73.05-74.27-52-95.32s87.78 44.46 95.32 52 73.05 74.27 52 95.32z" fill="#a18b76"/><path d="m325.691 437.678c-5.352 5.352-13.278 4.74-20.52 2.54 1.28-.64 2.46-1.48 3.52-2.54 21.05-21.05-44.46-87.78-52-95.32-5.8-5.8-46.69-45.96-74.8-54.54 24.11-12.05 84.64 47.38 91.8 54.54 7.54 7.54 73.05 74.27 52 95.32z" fill="#b59f89"/><path d="m228.931 472.018c-82.86 28.676-114.941 39.98-116.07 39.98-.555.133-.511.02-.83.02-5.52 0-9.35-5.44-7.56-10.62.12-.361 1.803-5.193 4.1-11.86.09-.226-3.895 1.241 50.23-17.52z" fill="#e1c3a7"/></g></svg>