<svg id="Capa_1" enable-background="new 0 0 512 512" height="512" viewBox="0 0 512 512" width="512" xmlns="http://www.w3.org/2000/svg"><g><path d="m431.06 0h-130.06c-5.522 0-10 4.477-10 10s4.478 10 10 10h55.434c4.472 33.539 31.088 60.154 64.626 64.627v342.747c-33.539 4.472-60.154 31.087-64.626 64.626h-200.868c-4.472-33.539-31.088-60.154-64.626-64.626v-342.747c33.539-4.472 60.154-31.087 64.626-64.627h55.434c5.523 0 10-4.477 10-10s-4.477-10-10-10h-130.061c-5.522 0-10 4.477-10 10v492c0 5.522 4.478 10 10 10h350.121c5.523 0 10-4.478 10-10v-492c0-5.523-4.477-10-10-10zm-54.387 20h44.388v44.388c-22.493-4.127-40.262-21.895-44.388-44.388zm-241.346 0c-4.126 22.493-21.895 40.261-44.388 44.388v-44.388zm-44.388 427.612c22.493 4.126 40.261 21.895 44.388 44.388h-44.388zm285.734 44.388c4.126-22.493 21.895-40.261 44.388-44.388v44.388z"/><circle cx="256" cy="10" r="10"/><path d="m205.571 90.647c-7.065 7.891-10.42 18.371-9.215 28.666.482 4.455 1.701 8.529 3.501 12.297-4.142.323-8.256 1.298-12.327 3.097-9.601 4.139-17 12.285-20.301 22.349-3.295 10.048-2.164 20.974 3.102 29.982 4.258 7.36 10.73 12.862 18.346 15.863-1.212 8.101.313 16.455 4.55 23.792 5.166 9.081 14.07 15.535 24.431 17.707 2.544.534 5.111.796 7.66.796 7.389 0 14.622-2.203 20.682-6.371v24.736c0 5.522 4.477 10 10 10 5.522 0 10-4.478 10-10v-24.737c6.097 4.176 13.321 6.371 20.692 6.371 2.545 0 5.109-.262 7.649-.795 10.349-2.17 19.245-8.612 24.414-17.678 4.245-7.367 5.773-15.725 4.565-23.819 7.621-3.001 14.093-8.499 18.329-15.837 5.281-9.014 6.418-19.952 3.12-30.011-3.301-10.063-10.7-18.21-20.22-22.313-4.098-1.81-8.235-2.791-12.398-3.116 1.791-3.748 3.003-7.799 3.481-12.225 1.215-10.384-2.14-20.864-9.205-28.755-7.01-7.829-16.956-12.306-27.322-12.306-.064 0-.133.001-.197.001-8.502.008-16.502 2.862-22.908 7.956-6.409-5.1-14.407-7.956-22.88-7.956-.076 0-.152-.001-.227-.001-10.365.002-20.312 4.479-27.322 12.307zm40.391 82.669c-.003 20.053-.006 40.788-10.746 48.64-3.79 2.821-8.694 3.869-13.453 2.871-4.753-.996-8.817-3.921-11.183-8.077-2.961-5.129-3.046-11.308-.227-16.528 1.649-3.055 1.597-6.745-.139-9.752-1.735-3.006-4.905-4.896-8.375-4.996-5.932-.169-11.241-3.332-14.202-8.461-.011-.019-.021-.036-.032-.055-2.385-4.072-2.885-9.054-1.372-13.669 1.516-4.621 4.874-8.344 9.296-10.251 2.274-1.004 4.753-1.452 7.399-1.452 11.421 0 25.914 8.363 40.015 16.502 1.007.581 2.015 1.162 3.021 1.741-.002 1.161-.002 2.324-.002 3.487zm79.805-10.027c1.513 4.615 1.013 9.597-1.404 13.724-2.961 5.129-8.271 8.292-14.202 8.461-3.47.1-6.64 1.99-8.375 4.996-1.735 3.007-1.788 6.697-.139 9.752 2.819 5.221 2.734 11.399-.227 16.528-.011.019-.021.037-.032.056-2.333 4.101-6.397 7.025-11.15 8.021-4.759.998-9.664-.049-13.525-2.925-10.668-7.798-10.671-28.533-10.674-48.586 0-1.163 0-2.326-.003-3.487 1.007-.579 2.015-1.16 3.021-1.741 17.368-10.024 35.325-20.391 47.495-15.015 4.341 1.872 7.699 5.595 9.215 10.216zm-105.296-59.3c3.217-3.593 7.738-5.647 12.483-5.647 5.951-.034 11.402 2.987 14.531 8.068 1.82 2.956 5.044 4.756 8.515 4.756s6.694-1.8 8.515-4.756c3.111-5.052 8.505-8.068 14.428-8.068h.063c4.697-.027 9.283 2.027 12.523 5.647 3.244 3.623 4.789 8.392 4.229 13.176-1.42 13.137-19.374 23.507-36.737 33.535-1.008.582-2.016 1.164-3.022 1.747-1.006-.583-2.014-1.165-3.021-1.747-17.363-10.028-35.317-20.398-36.747-33.624-.549-4.694.996-9.464 4.24-13.087z"/><path d="m336.632 313.657h-161.264c-5.522 0-10 4.478-10 10s4.478 10 10 10h161.264c5.522 0 10-4.478 10-10s-4.478-10-10-10z"/><path d="m175.368 413.657c-5.522 0-10 4.478-10 10s4.478 10 10 10h161.264c5.522 0 10-4.478 10-10s-4.478-10-10-10z"/><path d="m390.445 373.657c0-5.522-4.478-10-10-10h-248.89c-5.522 0-10 4.478-10 10s4.478 10 10 10h248.891c5.522 0 9.999-4.477 9.999-10z"/></g></svg>