<svg height="512" viewBox="0 0 512 512" width="512" xmlns="http://www.w3.org/2000/svg"><g id="Flat"><g><g><rect fill="#fdc069" height="248" rx="10" width="448" x="32" y="240"/><path d="m440 240-184 136-184-136v-206a10 10 0 0 1 10-10h348a10 10 0 0 1 10 10z" fill="#f15a57"/><path d="m408 264v-177.366a24.016 24.016 0 0 1 -30.634-30.634h-242.732a24.016 24.016 0 0 1 -30.634 30.634v177.366l150.1 112z" fill="#fff"/><g fill="#fcdedd"><path d="m136 216h80v16h-80z"/><path d="m136 248h64v16h-64z"/><path d="m296 216h80v16h-80z"/></g><g><path d="m376 256h-64" fill="#fff"/><path d="m312 248h64v16h-64z" fill="#fcdedd"/></g><circle cx="80" cy="440" fill="#fff" r="16"/><circle cx="432" cy="440" fill="#fff" r="16"/><path d="m288 200a56 56 0 1 1 56-56 56.063 56.063 0 0 1 -56 56zm0-96a40 40 0 1 0 40 40 40.045 40.045 0 0 0 -40-40z" fill="#fb8656"/><path d="m224 200a56 56 0 1 1 56-56 56.063 56.063 0 0 1 -56 56zm0-96a40 40 0 1 0 40 40 40.045 40.045 0 0 0 -40-40z" fill="#fdc069"/></g><path d="m229.459 400a48.34 48.34 0 0 1 -11.778 9.456c-17.524 10.039-36.839 6.63-43.139-7.616a23.68 23.68 0 0 1 -1.953-8.315c-16.463 1.145-30.589-7.525-33.037-21.29a25.24 25.24 0 0 1 1.523-13.758c-12.416-4.501-21.075-14.615-21.075-26.377 0-15.949 15.9-28.877 35.524-28.877a39.761 39.761 0 0 1 25.508 8.777" fill="#fff"/><path d="m272 386.343c0 15.949 15.9 28.878 35.524 28.878s35.523-12.929 35.523-28.878a23.755 23.755 0 0 0 -.422-4.455c8.481-2.733 15.049-8.488 17.678-16.233 13.045 2.525 25-2.067 29.7-12.7 6.3-14.245-2.8-33.932-20.321-43.971s-36.839-6.63-43.139 7.616a23.685 23.685 0 0 0 -1.953 8.315c-16.463-1.145-30.587 7.53-33.037 21.29a25.239 25.239 0 0 0 1.523 13.758c-12.417 4.502-21.076 14.616-21.076 26.38z" fill="#fff"/><path d="m256 431.221-68.284-71.611a43.406 43.406 0 0 1 0-59.323 38.7 38.7 0 0 1 56.568 0l11.716 12.286 11.716-12.286a38.7 38.7 0 0 1 56.568 0 43.406 43.406 0 0 1 0 59.323z" fill="#f15a57"/></g></g></svg>