<svg id="Capa_1" enable-background="new 0 0 512 512" height="512" viewBox="0 0 512 512" width="512" xmlns="http://www.w3.org/2000/svg"><g><g><path d="m370.5 10h-30.417l-46.583-10c-9.523 0-205.932 0-217.514 0v77.187h29.985v434.813h187.528l132.083-10h30.418v-406.5c0-47.145-38.356-85.5-85.5-85.5z" fill="#eef4ff"/><path d="m466 512v-426.5c0-47.145-38.356-85.5-85.5-85.5-16.965 0-70.55 0-87 0v512z" fill="#d5e8fe"/><g fill="#b5dbff"><path d="m196 407h194.999v30h-194.999z"/><path d="m196 347h194.999v30h-194.999z"/><path d="m196 287h194.999v30h-194.999z"/></g><path d="m293.5 407h97.5v30h-97.5z" fill="#93bdfc"/><path d="m293.5 347h97.5v30h-97.5z" fill="#93bdfc"/><path d="m293.5 287h97.5v30h-97.5z" fill="#93bdfc"/><path d="m105.971 210h-59.971v-180.015c0-16.56 13.425-29.985 29.986-29.985 16.561 0 29.985 13.425 29.985 29.985z" fill="#b5dbff"/><path d="m346.049 100.103c-13.472-13.471-35.312-13.471-48.783 0l-3.766 3.766-3.766-3.766c-13.471-13.471-35.311-13.471-48.782 0-13.471 13.471-13.471 35.311 0 48.782l52.547 48.632 52.549-48.632c13.471-13.471 13.471-35.311.001-48.782z" fill="#f69"/><path d="m346.049 100.103c-13.471-13.471-35.312-13.471-48.783 0l-3.766 3.766v93.648l52.549-48.632c13.47-13.471 13.47-35.311 0-48.782z" fill="#e6455f"/></g></g></svg>