<svg height="464pt" viewBox="-52 0 464 464.52" width="464pt" xmlns="http://www.w3.org/2000/svg"><path d="m360.261719 24v416.519531c-.003907 13.253907-10.75 23.996094-24 24h-312c-13.253907-.003906-24-10.746093-24-24v-416.519531c0-13.253906 10.746093-23.99609375 24-24h312c13.25.00390625 23.996093 10.746094 24 24zm-151.773438 72.480469c7.691407-7.6875 7.695313-20.15625.007813-27.84375-7.6875-7.691407-20.15625-7.695313-27.847656-.007813l-.417969.410156-.410157-.410156c-3.625-3.730468-8.617187-5.816406-13.820312-5.769531-5.261719-.046875-10.316406 2.03125-14.019531 5.769531-7.632813 7.714844-7.632813 20.136719 0 27.851563l28.25 28.050781zm0 0" fill="#6fe3ff"/><path d="m224.359375 148.679688c26.160156.003906 48.820313 18.144531 54.546875 43.671874 5.722656 25.527344-7.019531 51.609376-30.671875 62.78125-23.652344 11.175782-51.894531 4.453126-67.972656-16.183593 15.746093-20.203125 15.746093-48.523438 0-68.730469 10.582031-13.605469 26.859375-21.554688 44.097656-21.539062zm0 0" fill="#6fe3ff"/><path d="m214.269531 82.449219c.007813 5.257812-2.070312 10.304687-5.78125 14.03125l-28.257812 28.050781-28.25-28.050781c-7.632813-7.714844-7.632813-20.136719 0-27.851563 3.703125-3.738281 8.757812-5.816406 14.019531-5.769531 5.203125-.046875 10.195312 2.039063 13.820312 5.769531l.410157.410156.417969-.410156c5.621093-5.613281 14.066406-7.300781 21.410156-4.28125 7.347656 3.023438 12.164062 10.160156 12.210937 18.101563zm0 0" fill="#f8ec7d"/><path d="m238.320312 325.359375h-116.121093c-3.3125 0-6-2.6875-6-6s2.6875-6 6-6h116.121093c3.3125 0 6 2.6875 6 6s-2.6875 6-6 6zm0 0" fill="#2561a1"/><path d="m284.78125 389.230469h-209.042969c-3.3125 0-6-2.6875-6-6s2.6875-6 6-6h209.042969c3.3125 0 6 2.6875 6 6s-2.6875 6-6 6zm0 0" fill="#2561a1"/><g fill="#e48e66"><path d="m224.359375 266.488281c-19.09375.054688-37.132813-8.753906-48.828125-23.847656-1.347656-1.6875-1.679688-3.964844-.878906-5.96875.804687-2.003906 2.621094-3.421875 4.757812-3.714844 2.140625-.289062 4.269532.589844 5.578125 2.304688 13.101563 16.808593 35.429688 23.445312 55.585938 16.519531 20.152343-6.925781 33.6875-25.882812 33.6875-47.195312s-13.535157-40.269532-33.6875-47.195313c-20.15625-6.925781-42.484375-.289063-55.585938 16.519531-1.308593 1.714844-3.4375 2.59375-5.578125 2.304688-2.136718-.292969-3.953125-1.710938-4.757812-3.714844-.800782-2.003906-.46875-4.28125.878906-5.96875 17.808594-22.84375 49.074219-30.28125 75.257812-17.910156 26.1875 12.375 40.292969 41.253906 33.957032 69.511718-6.335938 28.261719-31.421875 48.351563-60.386719 48.355469zm0 0"/><path d="m180.261719 51.011719c-3.316407 0-6-2.6875-6-6v-12.160157c0-3.316406 2.683593-6 6-6 3.3125 0 6 2.683594 6 6v12.160157c0 3.3125-2.6875 6-6 6zm0 0"/><path d="m208.875 58.488281c-2.300781 0-4.398438-1.320312-5.398438-3.394531s-.722656-4.539062.710938-6.339844l7.289062-9.160156c1.324219-1.707031 3.464844-2.566406 5.601563-2.253906 2.140625.308594 3.945313 1.746094 4.726563 3.761718.785156 2.011719.425781 4.292969-.941407 5.964844l-7.289062 9.160156c-1.136719 1.433594-2.867188 2.265626-4.699219 2.261719zm0 0"/><path d="m151.644531 58.488281c-1.832031.003907-3.5625-.828125-4.699219-2.261719l-7.292968-9.160156c-1.363282-1.671875-1.722656-3.953125-.941406-5.964844.785156-2.015624 2.589843-3.453124 4.726562-3.761718 2.140625-.3125 4.277344.546875 5.605469 2.253906l7.289062 9.160156c1.433594 1.800782 1.710938 4.265625.710938 6.339844s-3.097657 3.394531-5.402344 3.394531zm0 0"/></g><path d="m136.160156 266.488281c-28.96875 0-54.058594-20.089843-60.398437-48.355469-6.339844-28.265624 7.765625-57.148437 33.957031-69.519531 26.191406-12.375 57.464844-4.929687 75.269531 17.914063 17.441407 22.375 17.441407 53.742187 0 76.117187-11.695312 15.089844-29.734375 23.898438-48.828125 23.84375zm0-111.808593c-23.351562.003906-43.582031 16.199218-48.691406 38.988281-5.109375 22.785156 6.265625 46.066406 27.382812 56.042969 21.117188 9.972656 46.324219 3.96875 60.679688-14.449219 11.71875-15.042969 13.84375-35.449219 5.472656-52.585938-8.371094-17.132812-25.773437-27.996093-44.84375-27.996093zm0 0" fill="#f8ec7d"/></svg>