<svg id="Capa_1" enable-background="new 0 0 512 512" height="512" viewBox="0 0 512 512" width="512" xmlns="http://www.w3.org/2000/svg"><g><path d="m451 181v150l-150 181h-90l-150-181v-150l150-181h90z" fill="#fff5e6"/><path d="m451 181v150l-150 181h-45v-512h45z" fill="#f9d9ba"/><path d="m331 106c0 8.276 6.738 15 15 15 24.814 0 45 20.186 45 45 0 8.276 6.738 15 15 15h45v-181h-150v63.563c17.461 6.197 30 22.881 30 42.437z" fill="#e63a57"/><path d="m391 346c0 24.814-20.186 45-45 45-8.262 0-15 6.724-15 15 0 19.556-12.539 36.24-30 42.437v63.563h150v-181h-45c-8.262 0-15 6.724-15 15z" fill="#e63a57"/><g><path d="m151 241h210v30h-210z" fill="#ff5959"/></g><g><path d="m211 181h90v30h-90z" fill="#ff5959"/></g><g><path d="m211 301h90v30h-90z" fill="#ff5959"/></g><g fill="#e63a57"><path d="m256 181h45v30h-45z"/><path d="m256 301h45v30h-45z"/><path d="m256 241h105v30h-105z"/></g><path d="m181 406c0-8.276-6.738-15-15-15-24.814 0-45-20.186-45-45 0-8.276-6.738-15-15-15h-45v181h150v-63.563c-17.461-6.197-30-22.881-30-42.437z" fill="#ff5959"/><path d="m121 166c0-24.814 20.186-45 45-45 8.262 0 15-6.724 15-15 0-19.556 12.539-36.24 30-42.437v-63.563h-150v181h45c8.262 0 15-6.724 15-15z" fill="#ff5959"/></g></svg>